<svg width="277" height="42" viewBox="0 0 277 42" fill="none" xmlns="http://www.w3.org/2000/svg">
<path d="M10.636 12.524C11.62 12.524 12.76 12.668 14.056 12.956C15.376 13.22 16.324 13.52 16.9 13.856V19.4H15.532C14.596 18.2 13.516 17.264 12.292 16.592C11.092 15.896 9.844 15.548 8.548 15.548C7.444 15.548 6.604 16.04 6.028 17.024C5.476 18.008 5.2 19.448 5.2 21.344C5.2 23.6 5.692 25.496 6.676 27.032C7.66 28.544 9.064 29.3 10.888 29.3C12.256 29.3 14.2 28.316 16.72 26.348L17.8 27.716L12.256 32.072C11.296 32.264 10.144 32.36 8.8 32.36C7.216 32.36 5.788 31.952 4.516 31.136C3.268 30.296 2.284 29.168 1.564 27.752C0.868 26.336 0.52 24.776 0.52 23.072C0.52 21.224 1.036 19.484 2.068 17.852C3.124 16.22 4.444 14.924 6.028 13.964C7.612 13.004 9.148 12.524 10.636 12.524ZM43.6221 32H36.7821V19.868C36.7821 18.548 36.5781 17.624 36.1701 17.096C35.7621 16.568 35.0301 16.304 33.9741 16.304C33.1821 16.304 32.3901 16.448 31.5981 16.736C30.8301 17.024 29.9181 17.576 28.8621 18.392V29.3L32.1021 30.56L31.3821 32H21.3381V30.884L24.5421 28.364V6.224L21.3381 3.992V2.876L27.4941 0.571999H28.8621V16.7L33.7941 12.812C34.2981 12.62 34.9581 12.524 35.7741 12.524C37.4061 12.524 38.7021 13.028 39.6621 14.036C40.6221 15.02 41.1021 16.364 41.1021 18.068V29.3L44.3421 30.56L43.6221 32ZM65.986 32H59.146V28.868L55.078 32.072C54.598 32.264 53.998 32.36 53.278 32.36C51.214 32.36 49.714 31.844 48.778 30.812C47.866 29.78 47.41 28.544 47.41 27.104C47.41 26.24 47.722 25.388 48.346 24.548C48.97 23.708 49.858 22.916 51.01 22.172H59.146V19.868C59.146 18.308 58.726 17.204 57.886 16.556C57.07 15.908 55.942 15.584 54.502 15.584C53.014 15.584 51.19 16.484 49.03 18.284L47.95 16.916L53.134 12.812C54.094 12.62 55.246 12.524 56.59 12.524C58.774 12.524 60.466 13.064 61.666 14.144C62.866 15.2 63.466 16.748 63.466 18.788V29.3L66.706 30.56L65.986 32ZM54.43 29.3C55.894 29.3 57.466 28.628 59.146 27.284V23.648H52.774C52.462 24.032 52.234 24.416 52.09 24.8C51.97 25.184 51.91 25.604 51.91 26.06C51.91 26.948 52.138 27.716 52.594 28.364C53.05 28.988 53.662 29.3 54.43 29.3ZM91.8734 32.036H85.0334V19.904C85.0334 18.584 84.8294 17.66 84.4214 17.132C84.0134 16.604 83.2814 16.34 82.2254 16.34C81.4334 16.34 80.6414 16.484 79.8494 16.772C79.0814 17.06 78.1694 17.612 77.1134 18.428V29.336L80.3534 30.596L79.6334 32.036H69.5894V30.92L72.7934 28.4V18.212L69.5894 16.34V15.224L75.7454 12.2L76.9334 16.88L82.0454 12.812C82.5494 12.62 83.2094 12.524 84.0254 12.524C85.6574 12.524 86.9534 13.028 87.9134 14.036C88.8734 15.02 89.3534 16.364 89.3534 18.068V29.3L92.5934 30.596L91.8734 32.036ZM111.232 15.368C111.904 16.328 112.24 17.408 112.24 18.608C112.24 19.664 111.94 20.708 111.34 21.74C110.74 22.748 109.936 23.636 108.928 24.404C107.92 25.172 106.816 25.748 105.616 26.132C104.968 26.78 104.644 27.464 104.644 28.184C104.644 28.592 104.956 28.976 105.58 29.336C106.228 29.672 107.176 30.08 108.424 30.56C110.128 31.232 111.436 31.844 112.348 32.396C113.284 32.972 113.752 33.668 113.752 34.484C113.752 35.204 113.284 36.128 112.348 37.256C111.436 38.384 110.296 39.368 108.928 40.208C107.56 41.048 106.24 41.468 104.968 41.468C103.624 41.468 102.028 41.24 100.18 40.784C98.3564 40.328 96.8324 39.872 95.6084 39.416V33.872H96.9764C98.3204 35.528 99.6884 36.788 101.08 37.652C102.472 38.516 104.044 38.948 105.796 38.948C106.444 38.948 107.032 38.816 107.56 38.552C108.112 38.288 108.532 37.952 108.82 37.544C109.132 37.16 109.288 36.788 109.288 36.428C109.288 35.78 108.916 35.216 108.172 34.736C107.428 34.28 106.264 33.716 104.68 33.044C103.168 32.42 102.04 31.88 101.296 31.424C100.576 30.968 100.216 30.44 100.216 29.84C100.216 29.264 100.6 28.676 101.368 28.076C102.136 27.476 103.048 26.948 104.104 26.492C103.72 26.564 103.324 26.6 102.916 26.6C101.644 26.6 100.48 26.324 99.4244 25.772C98.3684 25.196 97.5284 24.44 96.9044 23.504C96.3044 22.568 96.0044 21.548 96.0044 20.444C96.0044 19.124 96.4604 17.852 97.3724 16.628C98.2844 15.404 99.4604 14.42 100.9 13.676C102.364 12.908 103.852 12.524 105.364 12.524C107.044 12.524 108.52 13.004 109.792 13.964H115.444L115.48 15.368H111.232ZM105.004 23.504C106.084 23.504 106.9 23.24 107.452 22.712C108.028 22.16 108.316 21.356 108.316 20.3C108.316 18.86 107.848 17.696 106.912 16.808C106 15.92 104.788 15.476 103.276 15.476C102.22 15.476 101.404 15.74 100.828 16.268C100.276 16.772 100 17.552 100 18.608C100 20.072 100.456 21.26 101.368 22.172C102.304 23.06 103.516 23.504 105.004 23.504ZM130.065 32.072C129.105 32.264 127.953 32.36 126.609 32.36C125.025 32.36 123.597 31.952 122.325 31.136C121.077 30.296 120.093 29.168 119.373 27.752C118.677 26.336 118.329 24.776 118.329 23.072C118.329 21.224 118.893 19.496 120.021 17.888C121.149 16.256 122.553 14.96 124.233 14C125.937 13.016 127.581 12.524 129.165 12.524C131.445 12.524 133.209 13.424 134.457 15.224C135.729 17.024 136.365 19.4 136.365 22.352H123.045C123.189 24.392 123.741 26.06 124.701 27.356C125.685 28.652 127.017 29.3 128.697 29.3C130.257 29.3 132.477 28.088 135.357 25.664L136.437 27.032L130.065 32.072ZM127.077 15.548C124.485 15.548 123.129 17.324 123.009 20.876H131.433C131.217 19.58 130.989 18.596 130.749 17.924C130.533 17.228 130.137 16.664 129.561 16.232C129.009 15.776 128.181 15.548 127.077 15.548ZM162.352 12.524C163.936 12.524 165.352 12.944 166.6 13.784C167.872 14.6 168.856 15.716 169.552 17.132C170.272 18.548 170.632 20.108 170.632 21.812C170.632 23.66 170.068 25.4 168.94 27.032C167.812 28.64 166.396 29.936 164.692 30.92C163.012 31.88 161.38 32.36 159.796 32.36C158.212 32.36 156.784 31.952 155.512 31.136C154.264 30.296 153.28 29.168 152.56 27.752C151.864 26.336 151.516 24.776 151.516 23.072C151.516 21.224 152.08 19.496 153.208 17.888C154.336 16.256 155.74 14.96 157.42 14C159.124 13.016 160.768 12.524 162.352 12.524ZM160.264 15.548C157.552 15.548 156.196 17.48 156.196 21.344C156.196 23.624 156.688 25.532 157.672 27.068C158.656 28.58 160.06 29.336 161.884 29.336C164.596 29.336 165.952 27.392 165.952 23.504C165.952 21.248 165.46 19.364 164.476 17.852C163.492 16.316 162.088 15.548 160.264 15.548ZM187.385 0.211999C188.057 0.211999 188.813 0.283999 189.653 0.427999C190.517 0.547999 191.129 0.679998 191.489 0.823998V6.368H190.121C189.521 5.408 188.789 4.652 187.925 4.1C187.061 3.524 186.185 3.236 185.297 3.236C184.193 3.236 183.353 3.728 182.777 4.712C182.225 5.696 181.949 7.136 181.949 9.032V13.964H188.429V15.44H181.949V29.012L186.989 30.56L186.269 32H174.425V30.884L177.629 28.364V15.44H173.345V13.964H177.629V10.76C177.629 8.912 178.133 7.172 179.141 5.54C180.149 3.908 181.409 2.612 182.921 1.652C184.457 0.691999 185.945 0.211999 187.385 0.211999ZM209.624 32H199.58V30.884L202.784 28.364V6.224L199.58 3.992V2.876L205.736 0.571999H207.104V29.3L210.344 30.56L209.624 32ZM224.965 12.524C226.549 12.524 227.965 12.944 229.213 13.784C230.485 14.6 231.469 15.716 232.165 17.132C232.885 18.548 233.245 20.108 233.245 21.812C233.245 23.66 232.681 25.4 231.553 27.032C230.425 28.64 229.009 29.936 227.305 30.92C225.625 31.88 223.993 32.36 222.409 32.36C220.825 32.36 219.397 31.952 218.125 31.136C216.877 30.296 215.893 29.168 215.173 27.752C214.477 26.336 214.129 24.776 214.129 23.072C214.129 21.224 214.693 19.496 215.821 17.888C216.949 16.256 218.353 14.96 220.033 14C221.737 13.016 223.381 12.524 224.965 12.524ZM222.877 15.548C220.165 15.548 218.809 17.48 218.809 21.344C218.809 23.624 219.301 25.532 220.285 27.068C221.269 28.58 222.673 29.336 224.497 29.336C227.209 29.336 228.565 27.392 228.565 23.504C228.565 21.248 228.073 19.364 227.089 17.852C226.105 16.316 224.701 15.548 222.877 15.548ZM253.51 15.368C254.182 16.328 254.518 17.408 254.518 18.608C254.518 19.664 254.218 20.708 253.618 21.74C253.018 22.748 252.214 23.636 251.206 24.404C250.198 25.172 249.094 25.748 247.894 26.132C247.246 26.78 246.922 27.464 246.922 28.184C246.922 28.592 247.234 28.976 247.858 29.336C248.506 29.672 249.454 30.08 250.702 30.56C252.406 31.232 253.714 31.844 254.626 32.396C255.562 32.972 256.03 33.668 256.03 34.484C256.03 35.204 255.562 36.128 254.626 37.256C253.714 38.384 252.574 39.368 251.206 40.208C249.838 41.048 248.518 41.468 247.246 41.468C245.902 41.468 244.306 41.24 242.458 40.784C240.634 40.328 239.11 39.872 237.886 39.416V33.872H239.254C240.598 35.528 241.966 36.788 243.358 37.652C244.75 38.516 246.322 38.948 248.074 38.948C248.722 38.948 249.31 38.816 249.838 38.552C250.39 38.288 250.81 37.952 251.098 37.544C251.41 37.16 251.566 36.788 251.566 36.428C251.566 35.78 251.194 35.216 250.45 34.736C249.706 34.28 248.542 33.716 246.958 33.044C245.446 32.42 244.318 31.88 243.574 31.424C242.854 30.968 242.494 30.44 242.494 29.84C242.494 29.264 242.878 28.676 243.646 28.076C244.414 27.476 245.326 26.948 246.382 26.492C245.998 26.564 245.602 26.6 245.194 26.6C243.922 26.6 242.758 26.324 241.702 25.772C240.646 25.196 239.806 24.44 239.182 23.504C238.582 22.568 238.282 21.548 238.282 20.444C238.282 19.124 238.738 17.852 239.65 16.628C240.562 15.404 241.738 14.42 243.178 13.676C244.642 12.908 246.13 12.524 247.642 12.524C249.322 12.524 250.798 13.004 252.07 13.964H257.722L257.758 15.368H253.51ZM247.282 23.504C248.362 23.504 249.178 23.24 249.73 22.712C250.306 22.16 250.594 21.356 250.594 20.3C250.594 18.86 250.126 17.696 249.19 16.808C248.278 15.92 247.066 15.476 245.554 15.476C244.498 15.476 243.682 15.74 243.106 16.268C242.554 16.772 242.278 17.552 242.278 18.608C242.278 20.072 242.734 21.26 243.646 22.172C244.582 23.06 245.794 23.504 247.282 23.504ZM272.361 28.112C272.361 27.44 271.989 26.828 271.245 26.276C270.501 25.7 269.361 25.016 267.825 24.224C266.577 23.576 265.569 23.012 264.801 22.532C264.033 22.052 263.373 21.5 262.821 20.876C262.293 20.228 262.029 19.532 262.029 18.788C262.029 17.924 262.389 17 263.109 16.016C263.829 15.032 264.717 14.204 265.773 13.532C266.829 12.86 267.813 12.524 268.725 12.524C269.829 12.524 271.101 12.668 272.541 12.956C274.005 13.22 275.061 13.52 275.709 13.856V19.4H274.341C273.573 17.912 272.685 16.76 271.677 15.944C270.669 15.104 269.637 14.684 268.581 14.684C267.837 14.684 267.237 14.888 266.781 15.296C266.325 15.68 266.097 16.172 266.097 16.772C266.097 17.516 266.481 18.188 267.249 18.788C268.041 19.364 269.229 20.048 270.813 20.84C272.037 21.464 273.021 22.004 273.765 22.46C274.509 22.916 275.133 23.456 275.637 24.08C276.165 24.68 276.429 25.352 276.429 26.096C276.429 26.984 276.045 27.92 275.277 28.904C274.533 29.864 273.609 30.68 272.505 31.352C271.425 32.024 270.429 32.36 269.517 32.36C268.341 32.36 266.937 32.228 265.305 31.964C263.697 31.676 262.545 31.364 261.849 31.028V25.484H263.217C264.057 26.972 265.053 28.136 266.205 28.976C267.357 29.792 268.521 30.2 269.697 30.2C270.489 30.2 271.125 29.996 271.605 29.588C272.109 29.18 272.361 28.688 272.361 28.112Z" fill="black"/>
</svg>
